# xmcd
#
# Track frame offsets:
#	150
#	17996
#	35679
#	52039
#	69246
#	85840
#	103109
#	121267
#	137751
#	152401
#	168811
#	182553
#	199352
#	214885
#	233172
#	249051
#	266155
#	283520
#	295100
#	314960
#	330252
#
# Disc length: 4567 seconds
#
# Revision: 2
# Processed by: cddbd v1.5.2PL0 Copyright (c) Steve Scherf et al.
# Submitted via: EasyCDDAExtractor 11.5.0.1
#
DISCID=3011d515
DTITLE=Various Artist - NCT 060
DYEAR=2004
DGENRE=Country
TTITLE0=Toby Keith - Whiskey Girl
TTITLE1=Joe Nichols - If Nobody Believed In You
TTITLE2=Gretchen Wilson - Redneck Woman
TTITLE3=Josh Gracin - I Want To Live
TTITLE4=Rachel Proctor - Me And Emily
TTITLE5=Brad Paisley ft. Alison Krauss - Whiskey Lullaby
TTITLE6=Jessie Alexander - Honeysuckle Sweet
TTITLE7=Vince Gill - In These Last Few Days
TTITLE8=Tracy Byrd - How'd I Wind Up In Jamaica
TTITLE9=The Jenkins - Blame It On Mama
TTITLE10=Shannon Lawson - Smokin' Grass
TTITLE11=Jimmy Wayne - You Are
TTITLE12=Josh Turner - What It Ain't
TTITLE13=Randy Travis - Raise Him Up
TTITLE14=Lane Turner - Always Wanting More (Breathless)
TTITLE15=Sara Evans - Suds In The Bucket
TTITLE16=James Otto - Sunday Morning And Saturday Night
TTITLE17=Craig Morgan - Look At Us
TTITLE18=Jeffrey Steele - Good Year For The Outlaw
TTITLE19=Trent Willmon - Beer Man
TTITLE20=Michelle Poe - Just One Of The Boys
EXTD=
EXTT0=
EXTT1=
EXTT2=
EXTT3=
EXTT4=
EXTT5=
EXTT6=
EXTT7=
EXTT8=
EXTT9=
EXTT10=
EXTT11=
EXTT12=
EXTT13=
EXTT14=
EXTT15=
EXTT16=
EXTT17=
EXTT18=
EXTT19=
EXTT20=
PLAYORDER=
